<?xml version="1.0" encoding="UTF-8" standalone="no"?>
<!DOCTYPE svg PUBLIC "-//W3C//DTD SVG 1.1//EN" "http://www.w3.org/Graphics/SVG/1.1/DTD/svg11.dtd">
<svg width="100%" height="100%" viewBox="0 0 1120 1568" version="1.1" xmlns="http://www.w3.org/2000/svg" xmlns:xlink="http://www.w3.org/1999/xlink" xml:space="preserve" style="fill-rule:evenodd;clip-rule:evenodd;stroke-linejoin:round;stroke-miterlimit:1.41421;">
    <g transform="matrix(5.55556,0,0,5.55556,0,0)">
        <g transform="matrix(0.837549,0,0,0.858824,0,0)">
            <path d="M201.58,10.08C201.58,4.55 197.03,0 191.5,0L10.08,0C4.55,0 0,4.55 0,10.08L0,272.14C0,277.67 4.55,282.22 10.08,282.22L191.5,282.22C197.03,282.22 201.58,277.67 201.58,272.14L201.58,10.08Z" style="fill:rgb(2,1,1);fill-rule:nonzero;"/>
        </g>
        <g transform="matrix(0.492181,-0.694891,0.677677,0.504683,-66.0659,155.482)">
            <rect x="100.79" y="167.35" width="74.79" height="1.12" style="fill:white;"/>
        </g>
        <g transform="matrix(0.837549,0,0,0.858824,0,0)">
            <path d="M143.69,156.55L142.78,155.89L156.06,137.57C155.06,136.26 152.06,132.15 142.78,119.37L143.69,118.71L157.16,137.29L157.4,137.62L157.16,137.95L143.69,156.55Z" style="fill:white;fill-rule:nonzero;"/>
        </g>
        <g transform="matrix(0.837549,0,0,0.858824,0,0)">
            <path d="M133.78,180.69L132.87,180.03L163.65,137.57C162.53,136.16 159.2,131.57 148.35,116.57L132.88,95.24L133.79,94.58L164.79,137.31L165.03,137.64L164.79,137.97L133.78,180.69Z" style="fill:white;fill-rule:nonzero;"/>
        </g>
        <g transform="matrix(0.837549,0,0,0.858824,0,0)">
            <path d="M141.37,164.46L137.3,158.85L152.73,137.57C151.62,136.16 148.3,131.57 137.54,116.75L137.3,116.42L140.68,111.76L137.68,107.69L115.78,77.42L116.69,76.76L160.58,137.31L160.82,137.64L141.37,164.46ZM138.68,158.85L141.37,162.56L159.44,137.64L141.37,112.72L138.68,116.43L153.82,137.31L154.06,137.64L153.82,137.97L138.68,158.85Z" style="fill:white;fill-rule:nonzero;"/>
        </g>
        <g transform="matrix(0.678107,-0.504076,0.491589,0.695332,-72.4312,59.4134)">
            <rect x="62.84" y="130.52" width="1.12" height="74.79" style="fill:white;"/>
        </g>
        <g transform="matrix(0.837549,0,0,0.858824,0,0)">
            <path d="M100.79,215.94L92.17,204.05L93.08,203.39L100.79,214.03L108.5,203.39L109.41,204.05L100.79,215.94Z" style="fill:white;fill-rule:nonzero;"/>
        </g>
        <g transform="matrix(0.837549,0,0,0.858824,0,0)">
            <path d="M100.79,226.2L91.69,213.65L92.59,212.99L100.79,224.3L108.99,212.99L109.89,213.65L100.79,226.2Z" style="fill:white;fill-rule:nonzero;"/>
        </g>
        <g transform="matrix(0.837549,0,0,0.858824,0,0)">
            <path d="M57.89,156.55L44.18,137.63L44.42,137.3L57.89,118.72L58.8,119.38C49.53,132.16 46.56,136.26 45.52,137.58L58.8,155.89L57.89,156.55Z" style="fill:white;fill-rule:nonzero;"/>
        </g>
        <g transform="matrix(0.837549,0,0,0.858824,0,0)">
            <path d="M93.08,71.88L92.17,71.22L100.79,59.34L109.41,71.22L108.5,71.88L100.79,61.24L93.08,71.88Z" style="fill:white;fill-rule:nonzero;"/>
        </g>
        <g transform="matrix(0.837549,0,0,0.858824,0,0)">
            <path d="M67.8,180.69L36.58,137.64L36.82,137.31L67.82,94.58L68.73,95.24L53.22,116.6C42.37,131.6 39.04,136.16 37.92,137.6L68.7,180L67.8,180.69Z" style="fill:white;fill-rule:nonzero;"/>
        </g>
        <g transform="matrix(0.837549,0,0,0.858824,0,0)">
            <path d="M108.99,62.28L100.79,50.98L92.59,62.28L91.69,61.62L100.79,49.07L109.89,61.62L108.99,62.28Z" style="fill:white;fill-rule:nonzero;"/>
        </g>
        <g transform="matrix(0.837549,0,0,0.858824,0,0)">
            <path d="M60.21,164.46L40.76,137.64L41,137.31L42.37,135.42L58.66,112.95L84.9,76.76L85.81,77.42L63.85,107.69L60.85,111.76L64.23,116.42L63.99,116.75C53.28,131.6 50,136.17 48.86,137.57L64.29,158.85L60.21,164.46ZM42.15,137.64L60.22,162.56L62.91,158.85L47.52,137.63L47.76,137.3L62.9,116.42L60.21,112.71L42.15,137.64Z" style="fill:white;fill-rule:nonzero;"/>
        </g>
        <g transform="matrix(0.837549,0,0,0.858824,0,0)">
            <path d="M190.94,77C188.77,45.07 177.42,30.5 174.44,27.19C171.13,24.19 156.55,12.85 124.63,10.69L124.63,9.57L176.43,9.57L175.36,10.57C174.762,11.155 174.22,11.795 173.74,12.48L181.68,12.48L181.68,9.52L192.02,9.52L192.02,19.86L189.14,19.86L189.14,27.8C189.826,27.321 190.465,26.778 191.05,26.18L192.05,25.11L192.05,76.91L190.94,77ZM176.28,27.58C179.83,31.98 187.67,43.88 190.95,66.3L190.95,27.86C190.393,28.335 189.805,28.772 189.19,29.17L189.19,43.73L188.08,43.83C187.08,38.36 182.39,31.32 182.35,31.25L181.84,30.48L182.76,30.38C184.645,30.149 186.459,29.518 188.08,28.53L188.08,19.86L183.39,19.86L189.2,13.06L189.2,18.74L190.96,18.74L190.96,10.64L182.86,10.64L182.86,12.4L188.54,12.4L181.74,18.21L181.74,13.52L173.07,13.52C172.081,15.141 171.45,16.955 171.22,18.84L171.12,19.76L170.35,19.25C170.28,19.25 163.23,14.52 157.77,13.52L157.87,12.41L172.43,12.41C172.827,11.795 173.265,11.207 173.74,10.65L135.28,10.65C157.7,13.91 169.61,21.76 174,25.31L174.33,25.48C173.58,21.95 174.33,17.65 175.92,16.13C176.524,15.452 177.528,15.284 178.32,15.73C179.161,16.106 179.789,16.841 180.03,17.73C180.178,18.933 179.855,20.148 179.13,21.12L178.23,20.45C178.761,19.738 179.014,18.855 178.94,17.97C178.779,17.389 178.363,16.91 177.81,16.67C177.448,16.452 176.975,16.543 176.72,16.88C175.32,18.25 174.72,22.72 175.63,25.88C178.83,26.81 183.3,26.19 184.63,24.79C184.963,24.532 185.053,24.063 184.84,23.7C184.6,23.147 184.121,22.731 183.54,22.57C182.655,22.499 181.773,22.751 181.06,23.28L180.39,22.38C181.362,21.656 182.577,21.333 183.78,21.48C184.669,21.721 185.404,22.349 185.78,23.19C186.226,23.982 186.058,24.986 185.38,25.59C183.87,27.13 179.56,27.92 176.03,27.18L176.28,27.58ZM183.75,31.37C185.449,34.047 186.895,36.875 188.07,39.82L188.07,29.82C186.721,30.562 185.263,31.086 183.75,31.37L183.75,31.37ZM185.81,18.74L188.07,18.74L188.07,16.09L185.81,18.74ZM161.81,13.52C164.755,14.694 167.584,16.14 170.26,17.84C170.541,16.327 171.061,14.869 171.8,13.52L161.8,13.52L161.81,13.52ZM182.88,13.52L182.88,15.78L185.53,13.52L182.88,13.52Z" style="fill:white;fill-rule:nonzero;"/>
        </g>
        <g transform="matrix(0.837549,0,0,0.858824,0,0)">
            <path d="M76.92,272.7L25.11,272.7L26.18,271.7C26.778,271.115 27.32,270.475 27.8,269.79L19.86,269.79L19.86,272.67L9.52,272.67L9.52,262.36L12.4,262.36L12.4,254.42C11.716,254.887 11.077,255.416 10.49,256L9.49,257.07L9.49,205.3L10.61,205.3C12.78,237.23 24.13,251.8 27.11,255.11C30.42,258.11 44.99,269.45 76.92,271.61L76.92,272.7ZM27.86,271.58L66.3,271.58C43.88,268.3 32,260.46 27.58,256.91L27.25,256.74C28,260.27 27.25,264.57 25.67,266.09C25.066,266.768 24.062,266.936 23.27,266.49C22.429,266.114 21.801,265.379 21.56,264.49C21.412,263.287 21.735,262.072 22.46,261.1L23.36,261.77C22.829,262.482 22.576,263.365 22.65,264.25C22.811,264.831 23.227,265.31 23.78,265.55C24.142,265.768 24.615,265.677 24.87,265.34C26.27,263.97 26.87,259.5 25.96,256.34C22.75,255.41 18.29,256.03 16.96,257.43C16.627,257.688 16.537,258.157 16.75,258.52C16.99,259.073 17.469,259.489 18.05,259.65C18.935,259.724 19.818,259.471 20.53,258.94L21.2,259.84C20.23,260.569 19.014,260.892 17.81,260.74C16.921,260.499 16.186,259.871 15.81,259.03C15.364,258.238 15.532,257.234 16.21,256.63C17.72,255.08 22.03,254.3 25.56,255.04L25.39,254.71C21.84,250.31 14,238.41 10.72,215.99L10.72,254.43C11.248,253.917 11.809,253.439 12.4,253L12.4,238.49L13.51,238.39C14.51,243.86 19.2,250.9 19.24,250.97L19.75,251.74L18.83,251.84C16.945,252.071 15.131,252.701 13.51,253.69L13.51,262.36L18.2,262.36L12.39,269.16L12.39,263.48L10.64,263.48L10.64,271.58L18.74,271.58L18.74,269.82L13.05,269.82L19.85,264.01L19.85,268.7L28.52,268.7C29.509,267.079 30.14,265.265 30.37,263.38L30.47,262.46L31.25,263C31.32,263 38.37,267.73 43.83,268.73L43.73,269.84L29.17,269.84C28.772,270.448 28.334,271.029 27.86,271.58ZM29.86,268.7L39.86,268.7C36.919,267.525 34.093,266.079 31.42,264.38C31.124,265.896 30.587,267.354 29.83,268.7L29.86,268.7ZM16.12,268.7L18.77,268.7L18.77,266.44L16.12,268.7ZM13.55,263.48L13.55,266.13L15.81,263.48L13.52,263.48L13.55,263.48ZM13.55,242.41L13.55,252.41C14.899,251.674 16.358,251.157 17.87,250.88C16.159,248.195 14.702,245.356 13.52,242.4L13.55,242.41Z" style="fill:white;fill-rule:nonzero;"/>
        </g>
        <g transform="matrix(0.837549,0,0,0.858824,0,0)">
            <path d="M10.64,77L9.52,77L9.52,25.12L10.52,26.19C11.096,26.784 11.725,27.323 12.4,27.8L12.4,19.86L9.52,19.86L9.52,9.52L19.86,9.52L19.86,12.4L27.8,12.4C27.321,11.714 26.779,11.074 26.18,10.49L25.11,9.49L76.92,9.49L76.92,10.61C45,12.81 30.45,24.16 27.14,27.14C24.16,30.45 12.81,45 10.64,77ZM10.64,27.9L10.64,66.3C13.91,43.88 21.76,32 25.31,27.58L25.48,27.25C21.96,28 17.65,27.25 16.14,25.66C15.462,25.056 15.294,24.052 15.74,23.26C16.116,22.419 16.851,21.791 17.74,21.55C18.943,21.402 20.158,21.725 21.13,22.45L20.46,23.35C19.753,22.824 18.878,22.575 18,22.65C17.419,22.811 16.94,23.227 16.7,23.78C16.487,24.143 16.577,24.612 16.91,24.87C18.28,26.27 22.75,26.87 25.91,25.96C26.84,22.76 26.22,18.29 24.82,16.96C24.562,16.627 24.093,16.537 23.73,16.75C23.207,16.991 22.813,17.447 22.65,18C22.576,18.885 22.829,19.768 23.36,20.48L22.46,21.15C21.736,20.178 21.413,18.963 21.56,17.76C21.802,16.872 22.43,16.137 23.27,15.76C24.062,15.314 25.066,15.482 25.67,16.16C27.22,17.67 28,21.98 27.26,25.51L27.59,25.34C32,21.76 43.88,13.91 66.3,10.64L27.86,10.64C28.335,11.197 28.772,11.785 29.17,12.4L43.73,12.4L43.83,13.51C38.36,14.51 31.32,19.2 31.25,19.24L30.48,19.75L30.38,18.83C30.149,16.945 29.518,15.131 28.53,13.51L19.86,13.51L19.86,18.2L13.06,12.39L18.74,12.39L18.74,10.64L10.64,10.64L10.64,18.74L12.4,18.74L12.4,13.06L18.21,19.86L13.52,19.86L13.52,28.53C15.141,29.519 16.955,30.149 18.84,30.38L19.76,30.48L19.25,31.25C19.25,31.32 14.52,38.37 13.52,43.83L12.41,43.73L12.41,29.17C11.792,28.773 11.2,28.335 10.64,27.86L10.64,27.9ZM13.52,29.9L13.52,39.9C14.695,36.955 16.141,34.127 17.84,31.45C16.323,31.144 14.864,30.597 13.52,29.83L13.52,29.9ZM13.52,18.81L15.78,18.81L13.52,16.16L13.52,18.81ZM29.83,13.59C30.566,14.94 31.083,16.398 31.36,17.91C34.036,16.21 36.865,14.764 39.81,13.59L29.81,13.59L29.83,13.59ZM16.09,13.59L18.74,15.85L18.74,13.52L16.09,13.52L16.09,13.59Z" style="fill:white;fill-rule:nonzero;"/>
        </g>
        <g transform="matrix(0.837549,0,0,0.858824,0,0)">
            <path d="M192.06,272.7L181.73,272.7L181.73,269.82L173.78,269.82C174.259,270.506 174.801,271.146 175.4,271.73L176.47,272.73L124.67,272.73L124.67,271.61C156.6,269.44 171.17,258.09 174.48,255.11C177.48,251.8 188.82,237.22 190.98,205.3L192.1,205.3L192.1,257.1L191.1,256.03C190.515,255.432 189.876,254.889 189.19,254.41L189.19,262.35L192.07,262.35L192.07,272.7L192.06,272.7ZM182.84,271.58L190.94,271.58L190.94,263.48L189.18,263.48L189.18,269.16L183.37,262.36L188.06,262.36L188.06,253.69C186.439,252.702 184.625,252.071 182.74,251.84L181.82,251.74L182.33,250.97C182.33,250.9 187.06,243.85 188.07,238.39L189.18,238.49L189.18,253C189.795,253.398 190.383,253.835 190.94,254.31L190.94,215.92C187.67,238.34 179.82,250.24 176.27,254.64L176.1,254.97C179.63,254.22 183.93,254.97 185.44,256.56C186.118,257.164 186.286,258.168 185.84,258.96C185.464,259.801 184.729,260.429 183.84,260.67C182.636,260.822 181.42,260.499 180.45,259.77L181.12,258.87C181.832,259.402 182.715,259.655 183.6,259.58C184.181,259.419 184.66,259.003 184.9,258.45C185.113,258.087 185.023,257.618 184.69,257.36C183.32,255.96 178.85,255.36 175.69,256.27C174.76,259.47 175.38,263.94 176.78,265.27C177.038,265.603 177.507,265.693 177.87,265.48C178.423,265.24 178.839,264.761 179,264.18C179.075,263.295 178.822,262.412 178.29,261.7L179.19,261.03C179.915,262.002 180.238,263.217 180.09,264.42C179.849,265.309 179.221,266.044 178.38,266.42C177.588,266.866 176.584,266.698 175.98,266.02C174.43,264.51 173.65,260.2 174.39,256.67L174.06,256.84C169.66,260.39 157.76,268.24 135.34,271.51L173.79,271.51C173.315,270.953 172.877,270.365 172.48,269.75L157.85,269.75L157.75,268.64C163.22,267.64 170.26,262.95 170.33,262.91L171.1,262.4L171.2,263.32C171.406,265.222 172.02,267.057 173,268.7L181.68,268.7L181.68,264L188.48,269.81L182.8,269.81L182.8,271.57L182.84,271.58ZM182.84,268.7L185.49,268.7L182.84,266.44L182.84,268.7ZM161.77,268.7L171.77,268.7C171.034,267.35 170.518,265.892 170.24,264.38C167.557,266.081 164.722,267.527 161.77,268.7L161.77,268.7ZM185.77,263.48L188.03,266.13L188.03,263.48L185.8,263.48L185.77,263.48ZM183.71,250.85C185.222,251.127 186.68,251.644 188.03,252.38L188.03,242.38C186.869,245.33 185.436,248.165 183.75,250.85L183.71,250.85Z" style="fill:white;fill-rule:nonzero;"/>
        </g>
        <g transform="matrix(0.837549,0,0,0.858824,0,0)">
            <path d="M190.94,77C188.77,45.07 177.42,30.5 174.44,27.19C171.13,24.19 156.55,12.85 124.63,10.69L124.63,9.57L176.43,9.57L175.36,10.57C174.762,11.155 174.22,11.795 173.74,12.48L181.68,12.48L181.68,9.52L192.02,9.52L192.02,19.86L189.14,19.86L189.14,27.8C189.826,27.321 190.465,26.778 191.05,26.18L192.05,25.11L192.05,76.91L190.94,77ZM176.28,27.58C179.83,31.98 187.67,43.88 190.95,66.3L190.95,27.86C190.393,28.335 189.805,28.772 189.19,29.17L189.19,43.73L188.08,43.83C187.08,38.36 182.39,31.32 182.35,31.25L181.84,30.48L182.76,30.38C184.645,30.149 186.459,29.518 188.08,28.53L188.08,19.86L183.39,19.86L189.2,13.06L189.2,18.74L190.96,18.74L190.96,10.64L182.86,10.64L182.86,12.4L188.54,12.4L181.74,18.21L181.74,13.52L173.07,13.52C172.081,15.141 171.45,16.955 171.22,18.84L171.12,19.76L170.35,19.25C170.28,19.25 163.23,14.52 157.77,13.52L157.87,12.41L172.43,12.41C172.827,11.795 173.265,11.207 173.74,10.65L135.28,10.65C157.7,13.91 169.61,21.76 174,25.31L174.33,25.48C173.58,21.95 174.33,17.65 175.92,16.13C176.524,15.452 177.528,15.284 178.32,15.73C179.161,16.106 179.789,16.841 180.03,17.73C180.178,18.933 179.855,20.148 179.13,21.12L178.23,20.45C178.761,19.738 179.014,18.855 178.94,17.97C178.779,17.389 178.363,16.91 177.81,16.67C177.448,16.452 176.975,16.543 176.72,16.88C175.32,18.25 174.72,22.72 175.63,25.88C178.83,26.81 183.3,26.19 184.63,24.79C184.963,24.532 185.053,24.063 184.84,23.7C184.6,23.147 184.121,22.731 183.54,22.57C182.655,22.499 181.773,22.751 181.06,23.28L180.39,22.38C181.362,21.656 182.577,21.333 183.78,21.48C184.669,21.721 185.404,22.349 185.78,23.19C186.226,23.982 186.058,24.986 185.38,25.59C183.87,27.13 179.56,27.92 176.03,27.18L176.28,27.58ZM183.75,31.37C185.449,34.047 186.895,36.875 188.07,39.82L188.07,29.82C186.721,30.562 185.263,31.086 183.75,31.37L183.75,31.37ZM185.81,18.74L188.07,18.74L188.07,16.09L185.81,18.74ZM161.81,13.52C164.755,14.694 167.584,16.14 170.26,17.84C170.541,16.327 171.061,14.869 171.8,13.52L161.8,13.52L161.81,13.52ZM182.88,13.52L182.88,15.78L185.53,13.52L182.88,13.52Z" style="fill:white;fill-rule:nonzero;"/>
        </g>
        <g transform="matrix(0.837549,0,0,0.858824,0,0)">
            <path d="M76.92,272.7L25.11,272.7L26.18,271.7C26.778,271.115 27.32,270.475 27.8,269.79L19.86,269.79L19.86,272.67L9.52,272.67L9.52,262.36L12.4,262.36L12.4,254.42C11.716,254.887 11.077,255.416 10.49,256L9.49,257.07L9.49,205.3L10.61,205.3C12.78,237.23 24.13,251.8 27.11,255.11C30.42,258.11 44.99,269.45 76.92,271.61L76.92,272.7ZM27.86,271.58L66.3,271.58C43.88,268.3 32,260.46 27.58,256.91L27.25,256.74C28,260.27 27.25,264.57 25.67,266.09C25.066,266.768 24.062,266.936 23.27,266.49C22.429,266.114 21.801,265.379 21.56,264.49C21.412,263.287 21.735,262.072 22.46,261.1L23.36,261.77C22.829,262.482 22.576,263.365 22.65,264.25C22.811,264.831 23.227,265.31 23.78,265.55C24.142,265.768 24.615,265.677 24.87,265.34C26.27,263.97 26.87,259.5 25.96,256.34C22.75,255.41 18.29,256.03 16.96,257.43C16.627,257.688 16.537,258.157 16.75,258.52C16.99,259.073 17.469,259.489 18.05,259.65C18.935,259.724 19.818,259.471 20.53,258.94L21.2,259.84C20.23,260.569 19.014,260.892 17.81,260.74C16.921,260.499 16.186,259.871 15.81,259.03C15.364,258.238 15.532,257.234 16.21,256.63C17.72,255.08 22.03,254.3 25.56,255.04L25.39,254.71C21.84,250.31 14,238.41 10.72,215.99L10.72,254.43C11.248,253.917 11.809,253.439 12.4,253L12.4,238.49L13.51,238.39C14.51,243.86 19.2,250.9 19.24,250.97L19.75,251.74L18.83,251.84C16.945,252.071 15.131,252.701 13.51,253.69L13.51,262.36L18.2,262.36L12.39,269.16L12.39,263.48L10.64,263.48L10.64,271.58L18.74,271.58L18.74,269.82L13.05,269.82L19.85,264.01L19.85,268.7L28.52,268.7C29.509,267.079 30.14,265.265 30.37,263.38L30.47,262.46L31.25,263C31.32,263 38.37,267.73 43.83,268.73L43.73,269.84L29.17,269.84C28.772,270.448 28.334,271.029 27.86,271.58ZM29.86,268.7L39.86,268.7C36.919,267.525 34.093,266.079 31.42,264.38C31.124,265.896 30.587,267.354 29.83,268.7L29.86,268.7ZM16.12,268.7L18.77,268.7L18.77,266.44L16.12,268.7ZM13.55,263.48L13.55,266.13L15.81,263.48L13.52,263.48L13.55,263.48ZM13.55,242.41L13.55,252.41C14.899,251.674 16.358,251.157 17.87,250.88C16.159,248.195 14.702,245.356 13.52,242.4L13.55,242.41Z" style="fill:white;fill-rule:nonzero;"/>
        </g>
        <g transform="matrix(0.837549,0,0,0.858824,0,0)">
            <path d="M10.64,77L9.52,77L9.52,25.12L10.52,26.19C11.096,26.784 11.725,27.323 12.4,27.8L12.4,19.86L9.52,19.86L9.52,9.52L19.86,9.52L19.86,12.4L27.8,12.4C27.321,11.714 26.779,11.074 26.18,10.49L25.11,9.49L76.92,9.49L76.92,10.61C45,12.81 30.45,24.16 27.14,27.14C24.16,30.45 12.81,45 10.64,77ZM10.64,27.9L10.64,66.3C13.91,43.88 21.76,32 25.31,27.58L25.48,27.25C21.96,28 17.65,27.25 16.14,25.66C15.462,25.056 15.294,24.052 15.74,23.26C16.116,22.419 16.851,21.791 17.74,21.55C18.943,21.402 20.158,21.725 21.13,22.45L20.46,23.35C19.753,22.824 18.878,22.575 18,22.65C17.419,22.811 16.94,23.227 16.7,23.78C16.487,24.143 16.577,24.612 16.91,24.87C18.28,26.27 22.75,26.87 25.91,25.96C26.84,22.76 26.22,18.29 24.82,16.96C24.562,16.627 24.093,16.537 23.73,16.75C23.207,16.991 22.813,17.447 22.65,18C22.576,18.885 22.829,19.768 23.36,20.48L22.46,21.15C21.736,20.178 21.413,18.963 21.56,17.76C21.802,16.872 22.43,16.137 23.27,15.76C24.062,15.314 25.066,15.482 25.67,16.16C27.22,17.67 28,21.98 27.26,25.51L27.59,25.34C32,21.76 43.88,13.91 66.3,10.64L27.86,10.64C28.335,11.197 28.772,11.785 29.17,12.4L43.73,12.4L43.83,13.51C38.36,14.51 31.32,19.2 31.25,19.24L30.48,19.75L30.38,18.83C30.149,16.945 29.518,15.131 28.53,13.51L19.86,13.51L19.86,18.2L13.06,12.39L18.74,12.39L18.74,10.64L10.64,10.64L10.64,18.74L12.4,18.74L12.4,13.06L18.21,19.86L13.52,19.86L13.52,28.53C15.141,29.519 16.955,30.149 18.84,30.38L19.76,30.48L19.25,31.25C19.25,31.32 14.52,38.37 13.52,43.83L12.41,43.73L12.41,29.17C11.792,28.773 11.2,28.335 10.64,27.86L10.64,27.9ZM13.52,29.9L13.52,39.9C14.695,36.955 16.141,34.127 17.84,31.45C16.323,31.144 14.864,30.597 13.52,29.83L13.52,29.9ZM13.52,18.81L15.78,18.81L13.52,16.16L13.52,18.81ZM29.83,13.59C30.566,14.94 31.083,16.398 31.36,17.91C34.036,16.21 36.865,14.764 39.81,13.59L29.81,13.59L29.83,13.59ZM16.09,13.59L18.74,15.85L18.74,13.52L16.09,13.52L16.09,13.59Z" style="fill:white;fill-rule:nonzero;"/>
        </g>
        <g transform="matrix(0.837549,0,0,0.858824,0,0)">
            <path d="M192.06,272.7L181.73,272.7L181.73,269.82L173.78,269.82C174.259,270.506 174.801,271.146 175.4,271.73L176.47,272.73L124.67,272.73L124.67,271.61C156.6,269.44 171.17,258.09 174.48,255.11C177.48,251.8 188.82,237.22 190.98,205.3L192.1,205.3L192.1,257.1L191.1,256.03C190.515,255.432 189.876,254.889 189.19,254.41L189.19,262.35L192.07,262.35L192.07,272.7L192.06,272.7ZM182.84,271.58L190.94,271.58L190.94,263.48L189.18,263.48L189.18,269.16L183.37,262.36L188.06,262.36L188.06,253.69C186.439,252.702 184.625,252.071 182.74,251.84L181.82,251.74L182.33,250.97C182.33,250.9 187.06,243.85 188.07,238.39L189.18,238.49L189.18,253C189.795,253.398 190.383,253.835 190.94,254.31L190.94,215.92C187.67,238.34 179.82,250.24 176.27,254.64L176.1,254.97C179.63,254.22 183.93,254.97 185.44,256.56C186.118,257.164 186.286,258.168 185.84,258.96C185.464,259.801 184.729,260.429 183.84,260.67C182.636,260.822 181.42,260.499 180.45,259.77L181.12,258.87C181.832,259.402 182.715,259.655 183.6,259.58C184.181,259.419 184.66,259.003 184.9,258.45C185.113,258.087 185.023,257.618 184.69,257.36C183.32,255.96 178.85,255.36 175.69,256.27C174.76,259.47 175.38,263.94 176.78,265.27C177.038,265.603 177.507,265.693 177.87,265.48C178.423,265.24 178.839,264.761 179,264.18C179.075,263.295 178.822,262.412 178.29,261.7L179.19,261.03C179.915,262.002 180.238,263.217 180.09,264.42C179.849,265.309 179.221,266.044 178.38,266.42C177.588,266.866 176.584,266.698 175.98,266.02C174.43,264.51 173.65,260.2 174.39,256.67L174.06,256.84C169.66,260.39 157.76,268.24 135.34,271.51L173.79,271.51C173.315,270.953 172.877,270.365 172.48,269.75L157.85,269.75L157.75,268.64C163.22,267.64 170.26,262.95 170.33,262.91L171.1,262.4L171.2,263.32C171.406,265.222 172.02,267.057 173,268.7L181.68,268.7L181.68,264L188.48,269.81L182.8,269.81L182.8,271.57L182.84,271.58ZM182.84,268.7L185.49,268.7L182.84,266.44L182.84,268.7ZM161.77,268.7L171.77,268.7C171.034,267.35 170.518,265.892 170.24,264.38C167.557,266.081 164.722,267.527 161.77,268.7L161.77,268.7ZM185.77,263.48L188.03,266.13L188.03,263.48L185.8,263.48L185.77,263.48ZM183.71,250.85C185.222,251.127 186.68,251.644 188.03,252.38L188.03,242.38C186.869,245.33 185.436,248.165 183.75,250.85L183.71,250.85Z" style="fill:white;fill-rule:nonzero;"/>
        </g>
        <g transform="matrix(0.837549,0,0,0.858824,0,0)">
            <path d="M100.79,170.18L74.68,137.64L100.79,105.09L126.9,137.64L100.79,170.18ZM76.12,137.64L100.79,168.4L125.46,137.64L100.79,106.88L76.12,137.64Z" style="fill:white;fill-rule:nonzero;"/>
        </g>
        <g transform="matrix(0.837549,0,0,0.858824,0,0)">
            <rect x="9.52" y="76.92" width="1.12" height="128.38" style="fill:white;"/>
        </g>
        <g transform="matrix(0.837549,0,0,0.858824,0,0)">
            <rect x="190.94" y="76.92" width="1.12" height="128.38" style="fill:white;"/>
        </g>
    </g>
</svg>
